<svg width="23" height="20" viewBox="0 0 23 20" fill="none" xmlns="http://www.w3.org/2000/svg">
<path id="Vector" d="M1.35789 2.26419L20.9748 0.740991C21.173 0.725478 21.3716 0.766392 21.5475 0.859C21.7234 0.95161 21.8696 1.09213 21.969 1.26431C22.0684 1.43649 22.117 1.63329 22.1093 1.83196C22.1015 2.03062 22.0376 2.22303 21.9251 2.38693L10.7975 18.6141C10.6835 18.7806 10.5241 18.9108 10.3382 18.9892C10.1523 19.0677 9.9478 19.0911 9.74899 19.0567C9.55019 19.0222 9.36546 18.9314 9.21679 18.795C9.06811 18.6586 8.96175 18.4824 8.91036 18.2873L7.1931 11.7611C7.17203 11.6812 7.17497 11.5968 7.20154 11.5185C7.22812 11.4401 7.27716 11.3714 7.34255 11.3208L14.2073 6.00814C14.2359 5.98574 14.2582 5.95632 14.2721 5.92276C14.2859 5.88919 14.2909 5.85261 14.2864 5.81657L14.2734 5.76375C14.2557 5.7197 14.2235 5.68294 14.1822 5.65945C14.141 5.63596 14.0929 5.62712 14.046 5.63436L13.9996 5.64658L5.9736 8.93113C5.89711 8.96224 5.81317 8.97018 5.73221 8.95397C5.65125 8.93776 5.57684 8.89811 5.51822 8.83995L0.697762 4.06264C0.554276 3.92064 0.45463 3.74039 0.410692 3.54336C0.366754 3.34632 0.380376 3.14081 0.449936 2.9513C0.519497 2.76179 0.642063 2.59627 0.803036 2.47445C0.96401 2.35263 1.15661 2.27964 1.35789 2.26419Z" fill="white"/>
</svg>
